<mxfile host="Electron" agent="Mozilla/5.0 (Windows NT 10.0; Win64; x64) AppleWebKit/537.36 (KHTML, like Gecko) draw.io/26.0.4 Chrome/128.0.6613.186 Electron/32.2.5 Safari/537.36" version="26.0.4">
  <diagram name="Page-1" id="ErCnhIx6DcZLbncz3Et1">
    <mxGraphModel dx="1434" dy="836" grid="1" gridSize="10" guides="1" tooltips="1" connect="1" arrows="1" fold="1" page="1" pageScale="1" pageWidth="850" pageHeight="1100" math="0" shadow="0">
      <root>
        <mxCell id="0" />
        <mxCell id="1" parent="0" />
        <mxCell id="nu29c9iX6Pa8DH85GAgv-5" style="edgeStyle=orthogonalEdgeStyle;rounded=0;orthogonalLoop=1;jettySize=auto;html=1;exitX=1;exitY=0.5;exitDx=0;exitDy=0;exitPerimeter=0;entryX=0;entryY=0.5;entryDx=0;entryDy=0;" parent="1" source="nu29c9iX6Pa8DH85GAgv-1" target="nu29c9iX6Pa8DH85GAgv-3" edge="1">
          <mxGeometry relative="1" as="geometry" />
        </mxCell>
        <mxCell id="nu29c9iX6Pa8DH85GAgv-1" value="&lt;font style=&quot;font-size: 14px;&quot;&gt;&lt;b style=&quot;&quot;&gt;System Message&lt;/b&gt;&lt;/font&gt;" style="html=1;strokeWidth=2;outlineConnect=0;dashed=0;align=center;fontSize=8;verticalLabelPosition=bottom;verticalAlign=top;shape=mxgraph.eip.test_message;fillColor=#dae8fc;strokeColor=#6c8ebf;" parent="1" vertex="1">
          <mxGeometry x="80" y="120" width="150" height="90" as="geometry" />
        </mxCell>
        <mxCell id="nu29c9iX6Pa8DH85GAgv-2" value="&lt;font style=&quot;font-size: 14px;&quot;&gt;&lt;b style=&quot;&quot;&gt;User Message&lt;/b&gt;&lt;/font&gt;" style="html=1;strokeWidth=2;outlineConnect=0;dashed=0;align=center;fontSize=8;verticalLabelPosition=bottom;verticalAlign=top;shape=mxgraph.eip.test_message;fillColor=#ffe6cc;strokeColor=#d79b00;" parent="1" vertex="1">
          <mxGeometry x="80" y="280" width="150" height="90" as="geometry" />
        </mxCell>
        <mxCell id="nu29c9iX6Pa8DH85GAgv-3" value="&lt;font style=&quot;font-size: 14px;&quot;&gt;&lt;b style=&quot;&quot;&gt;Prompt Interface&lt;/b&gt;&lt;/font&gt;" style="strokeWidth=2;dashed=0;align=center;fontSize=8;shape=rect;verticalLabelPosition=bottom;verticalAlign=top;fillColor=#c0f5a9;html=1;" parent="1" vertex="1">
          <mxGeometry x="310" y="280" width="150" height="90" as="geometry" />
        </mxCell>
        <mxCell id="nu29c9iX6Pa8DH85GAgv-4" value="" style="html=1;strokeWidth=1;dashed=0;align=center;fontSize=8;shape=rect" parent="nu29c9iX6Pa8DH85GAgv-3" vertex="1">
          <mxGeometry x="25" y="25" width="40" height="40" as="geometry" />
        </mxCell>
        <mxCell id="nu29c9iX6Pa8DH85GAgv-6" style="edgeStyle=orthogonalEdgeStyle;rounded=0;orthogonalLoop=1;jettySize=auto;html=1;exitX=1;exitY=0.5;exitDx=0;exitDy=0;exitPerimeter=0;entryX=0;entryY=0.5;entryDx=0;entryDy=0;" parent="1" source="nu29c9iX6Pa8DH85GAgv-2" target="nu29c9iX6Pa8DH85GAgv-3" edge="1">
          <mxGeometry relative="1" as="geometry" />
        </mxCell>
        <mxCell id="EswGRnAELeOBk34zyDYx-8" style="rounded=0;orthogonalLoop=1;jettySize=auto;html=1;exitX=0.5;exitY=0;exitDx=0;exitDy=0;exitPerimeter=0;startArrow=classic;startFill=1;" edge="1" parent="1" source="nu29c9iX6Pa8DH85GAgv-9" target="EswGRnAELeOBk34zyDYx-1">
          <mxGeometry relative="1" as="geometry" />
        </mxCell>
        <mxCell id="nu29c9iX6Pa8DH85GAgv-9" value="&lt;b&gt;&lt;font style=&quot;font-size: 14px;&quot;&gt;Model&lt;/font&gt;&lt;/b&gt;" style="html=1;strokeWidth=2;outlineConnect=0;dashed=0;align=center;fontSize=8;verticalLabelPosition=bottom;verticalAlign=top;shape=mxgraph.eip.message_store;fillColor=#c0f5a9" parent="1" vertex="1">
          <mxGeometry x="710" y="480" width="150" height="90" as="geometry" />
        </mxCell>
        <mxCell id="nu29c9iX6Pa8DH85GAgv-13" value="&lt;b&gt;&lt;font style=&quot;font-size: 14px;&quot;&gt;Response Interface&lt;/font&gt;&lt;/b&gt;" style="strokeWidth=2;dashed=0;align=center;fontSize=8;shape=rect;verticalLabelPosition=bottom;verticalAlign=top;fillColor=#c0f5a9;html=1;" parent="1" vertex="1">
          <mxGeometry x="1110" y="280" width="150" height="90" as="geometry" />
        </mxCell>
        <mxCell id="nu29c9iX6Pa8DH85GAgv-14" value="" style="html=1;strokeWidth=1;dashed=0;align=center;fontSize=8;shape=rect;" parent="nu29c9iX6Pa8DH85GAgv-13" vertex="1">
          <mxGeometry x="85" y="25" width="40" height="40" as="geometry" />
        </mxCell>
        <mxCell id="nu29c9iX6Pa8DH85GAgv-16" value="&lt;b&gt;&lt;font style=&quot;font-size: 14px;&quot;&gt;Output Message&lt;/font&gt;&lt;/b&gt;" style="html=1;strokeWidth=2;outlineConnect=0;dashed=0;align=center;fontSize=8;verticalLabelPosition=bottom;verticalAlign=top;shape=mxgraph.eip.test_message;fillColor=#e1d5e7;strokeColor=#9673a6;" parent="1" vertex="1">
          <mxGeometry x="1330" y="280" width="150" height="90" as="geometry" />
        </mxCell>
        <mxCell id="nu29c9iX6Pa8DH85GAgv-17" style="edgeStyle=orthogonalEdgeStyle;rounded=0;orthogonalLoop=1;jettySize=auto;html=1;exitX=1;exitY=0.5;exitDx=0;exitDy=0;entryX=0;entryY=0.5;entryDx=0;entryDy=0;entryPerimeter=0;" parent="1" source="nu29c9iX6Pa8DH85GAgv-13" target="nu29c9iX6Pa8DH85GAgv-16" edge="1">
          <mxGeometry relative="1" as="geometry" />
        </mxCell>
        <mxCell id="nu29c9iX6Pa8DH85GAgv-20" style="edgeStyle=orthogonalEdgeStyle;rounded=0;orthogonalLoop=1;jettySize=auto;html=1;exitX=1;exitY=0.5;exitDx=0;exitDy=0;exitPerimeter=0;entryX=0;entryY=0.5;entryDx=0;entryDy=0;" parent="1" source="nu29c9iX6Pa8DH85GAgv-18" target="nu29c9iX6Pa8DH85GAgv-3" edge="1">
          <mxGeometry relative="1" as="geometry" />
        </mxCell>
        <mxCell id="nu29c9iX6Pa8DH85GAgv-18" value="&lt;font style=&quot;font-size: 14px;&quot;&gt;&lt;b style=&quot;&quot;&gt;AI (Assistant) Message&lt;/b&gt;&lt;/font&gt;" style="html=1;strokeWidth=2;outlineConnect=0;dashed=0;align=center;fontSize=8;verticalLabelPosition=bottom;verticalAlign=top;shape=mxgraph.eip.test_message;fillColor=#f8cecc;strokeColor=#b85450;" parent="1" vertex="1">
          <mxGeometry x="80" y="440" width="150" height="90" as="geometry" />
        </mxCell>
        <mxCell id="nu29c9iX6Pa8DH85GAgv-22" value="&lt;b&gt;&lt;font style=&quot;font-size: 14px;&quot;&gt;Memory&lt;/font&gt;&lt;/b&gt;" style="html=1;strokeWidth=2;outlineConnect=0;dashed=0;align=center;fontSize=8;verticalLabelPosition=bottom;verticalAlign=top;shape=mxgraph.eip.message_store;fillColor=#bac8d3;strokeColor=#23445d;" parent="1" vertex="1">
          <mxGeometry x="540" y="480" width="150" height="90" as="geometry" />
        </mxCell>
        <mxCell id="EswGRnAELeOBk34zyDYx-5" style="edgeStyle=orthogonalEdgeStyle;rounded=0;orthogonalLoop=1;jettySize=auto;html=1;exitX=1;exitY=0.5;exitDx=0;exitDy=0;exitPerimeter=0;entryX=0;entryY=0.5;entryDx=0;entryDy=0;" edge="1" parent="1" source="EswGRnAELeOBk34zyDYx-1" target="nu29c9iX6Pa8DH85GAgv-13">
          <mxGeometry relative="1" as="geometry" />
        </mxCell>
        <mxCell id="EswGRnAELeOBk34zyDYx-1" value="&lt;b&gt;&lt;font style=&quot;font-size: 14px;&quot;&gt;Agent&lt;/font&gt;&lt;/b&gt;" style="html=1;strokeWidth=2;outlineConnect=0;dashed=0;align=center;fontSize=8;fillColor=#c0f5a9;verticalLabelPosition=bottom;verticalAlign=top;shape=mxgraph.eip.process_manager;" vertex="1" parent="1">
          <mxGeometry x="540" y="280" width="490" height="90" as="geometry" />
        </mxCell>
        <mxCell id="EswGRnAELeOBk34zyDYx-3" value="&lt;b&gt;&lt;font style=&quot;font-size: 14px;&quot;&gt;Tools&lt;/font&gt;&lt;/b&gt;" style="html=1;strokeWidth=2;outlineConnect=0;dashed=0;align=center;fontSize=8;fillColor=#c0f5a9;verticalLabelPosition=bottom;verticalAlign=top;shape=mxgraph.eip.normalizer;" vertex="1" parent="1">
          <mxGeometry x="880" y="480" width="150" height="90" as="geometry" />
        </mxCell>
        <mxCell id="EswGRnAELeOBk34zyDYx-4" style="edgeStyle=orthogonalEdgeStyle;rounded=0;orthogonalLoop=1;jettySize=auto;html=1;exitX=1;exitY=0.5;exitDx=0;exitDy=0;entryX=0;entryY=0.5;entryDx=0;entryDy=0;entryPerimeter=0;" edge="1" parent="1" source="nu29c9iX6Pa8DH85GAgv-3" target="EswGRnAELeOBk34zyDYx-1">
          <mxGeometry relative="1" as="geometry" />
        </mxCell>
        <mxCell id="EswGRnAELeOBk34zyDYx-7" style="rounded=0;orthogonalLoop=1;jettySize=auto;html=1;exitX=0.5;exitY=0;exitDx=0;exitDy=0;exitPerimeter=0;entryX=0.25;entryY=1;entryDx=0;entryDy=0;entryPerimeter=0;startArrow=classic;startFill=1;" edge="1" parent="1" source="nu29c9iX6Pa8DH85GAgv-22" target="EswGRnAELeOBk34zyDYx-1">
          <mxGeometry relative="1" as="geometry" />
        </mxCell>
        <mxCell id="EswGRnAELeOBk34zyDYx-9" style="rounded=0;orthogonalLoop=1;jettySize=auto;html=1;exitX=0.75;exitY=1;exitDx=0;exitDy=0;exitPerimeter=0;entryX=0.5;entryY=0;entryDx=0;entryDy=0;entryPerimeter=0;startArrow=classic;startFill=1;" edge="1" parent="1" source="EswGRnAELeOBk34zyDYx-1" target="EswGRnAELeOBk34zyDYx-3">
          <mxGeometry relative="1" as="geometry" />
        </mxCell>
      </root>
    </mxGraphModel>
  </diagram>
</mxfile>
